<svg xmlns="http://www.w3.org/2000/svg" width="512" height="512" viewBox="0 0 512 512">
  <defs>
    <linearGradient id="bg" x1="48" y1="32" x2="464" y2="480" gradientUnits="userSpaceOnUse">
      <stop offset="0" stop-color="#f6f0e6" />
      <stop offset="1" stop-color="#d7864c" />
    </linearGradient>
    <linearGradient id="panel" x1="104" y1="92" x2="408" y2="424" gradientUnits="userSpaceOnUse">
      <stop offset="0" stop-color="#fffdfa" />
      <stop offset="1" stop-color="#f0dfcf" />
    </linearGradient>
    <filter id="shadow" x="-20%" y="-20%" width="140%" height="140%">
      <feDropShadow dx="0" dy="14" stdDeviation="18" flood-color="#7f4a26" flood-opacity="0.24" />
    </filter>
  </defs>

  <rect x="28" y="28" width="456" height="456" rx="108" fill="url(#bg)" />
  <circle cx="410" cy="108" r="58" fill="#f4b16e" opacity="0.52" />
  <circle cx="126" cy="410" r="72" fill="#8e5430" opacity="0.13" />

  <g filter="url(#shadow)">
    <rect x="86" y="86" width="340" height="340" rx="44" fill="url(#panel)" />
    <rect x="86" y="86" width="340" height="340" rx="44" fill="none" stroke="#7f4a26" stroke-width="12" />
    <rect x="86" y="86" width="340" height="62" rx="44" fill="#7f4a26" />
    <circle cx="128" cy="117" r="9" fill="#f7d9b8" />
    <circle cx="156" cy="117" r="9" fill="#f3b377" />
    <circle cx="184" cy="117" r="9" fill="#f08c5b" />

    <rect x="116" y="172" width="80" height="206" rx="24" fill="#efe2d4" />
    <rect x="216" y="172" width="80" height="206" rx="24" fill="#ead8c5" />
    <rect x="316" y="172" width="80" height="206" rx="24" fill="#e4cfba" />

    <rect x="128" y="194" width="56" height="18" rx="9" fill="#7cc7b4" />
    <rect x="128" y="226" width="56" height="58" rx="16" fill="#4ba791" />
    <rect x="128" y="298" width="56" height="32" rx="13" fill="#d9b38f" />

    <rect x="228" y="194" width="56" height="18" rx="9" fill="#f1b275" />
    <rect x="224" y="228" width="64" height="114" rx="18" fill="#eb8f4d" />
    <path d="M241 287 L254 300 L274 270" fill="none" stroke="#fffaf4" stroke-linecap="round" stroke-linejoin="round" stroke-width="13" />

    <rect x="328" y="194" width="56" height="18" rx="9" fill="#c98662" />
    <rect x="328" y="226" width="56" height="42" rx="15" fill="#b86a49" />
    <rect x="328" y="282" width="56" height="76" rx="17" fill="#8c4f31" />
  </g>
</svg>